**ABCDEFGHIJKLMNOPQRSTUVWXYZabcdefghijklmnopqrstuvwxyz**************************
**PARASOLID !"#$%&'()*+,-./:;<=>?@[\]^_`{|}~0123456789**************************
**PART1;
MC=AMD64;
MC_MODEL=AMD64 Family 21 Model 2 Stepping 0, AuthenticAMD;
MC_ID=unknown;
OS=Windows_NT;
OS_RELEASE=unknown;
FRU=Parasolid Version 31.1, build 278,  7-15-2019;
APPL=SOLIDWORKS 2020-2019269;
SITE=;
USER=unknown;
FORMAT=text;
GUISE=transmit;
KEY=ITR9608;
FILE=ITR9608.x_t;
DATE=Thu May 28 10:25:32 2020;
**PART2;
SCH=SCH_3101278_31100;
USFLD_SIZE=0;
**PART3;
**END_OF_HEADER*****************************************************************
T51 : TRANSMIT FILE created by modeller version 310127823 SCH_3101278_31100_1300
6222 0 12 34 CCCCCCI4 mesh1006 0 I8 polyline1008 0 CCCCCCCDI5 owner1040 0 CCCCCC
I13 boundary_mesh1006 0 I17 boundary_polyline1008 0 CCCA16 index_map_offset0 0 1
 dA9 index_map82 0 A17 node_id_index_map82 0 A20 schema_embedding_map82 0 A5 chi
ld12 0 A14 lowest_node_id0 0 1 dA16 mesh_offset_data206 0 Z1 2467 2 3 0 0 0 0 0
 0 1e3 1e-8 0 4 0 1 0 1 1 5 6 7 8 0 0 9 10 11 0 0 0 0 0 0 0 81 255 2 2 2421 12 1
 13 0 0 0 0 14 70 11 CI9 list_type0 0 1 uI10 notransmit0 0 1 lCCCDCCDI12 finger_
index0 0 1 dI12 finger_block1012 0 CZ3 0 4 T1 0 0 11 20 1 15 15 13 255 5 99 0 1
 0 16 0 0 17 0 50 255 6 94 0 18 19 0 0 +.0065 .01 .003 -1 0 0 0 0 1 30 255 7 119
0 0 10 20 0 0 +.0025 .0068 .003 0 0 1 29 255 8 1169 0 11 21 0 .0025 .002 -25e-5
 19 8 CCCCCCCA5 owner12 0 Z9 33 0 1 17 0 22 V0 16 255 10 1188 23 ?24 0 25 7 0 0
 1 18 255 11 1167 0 26 0 27 8 ?1 17 255 26 0 28 29 30 11 31 32 0 33 -18 27 963 0
 34 11 35 21 ?1 17 34 0 36 37 38 27 39 40 0 41 -18 35 758 0 42 27 43 44 ?1 29 21
 965 0 27 44 8 -.0025 .002 -25e-5 29 44 760 0 35 45 21 .006 .0099 -4e-4 29 45 55
3 0 43 46 44 -.006 .0099 4e-4 18 43 551 0 47 35 48 45 ?1 29 46 421 0 48 49 45 .0
03 .01 .0025 18 48 419 0 50 43 51 46 ?1 29 49 296 0 51 52 46 -.003 .01 -.0025 18
 51 294 0 53 48 54 49 ?1 29 52 142 0 54 55 49 -.0025 .01 -.003 18 54 140 0 56 51
 57 52 ?1 29 55 75 0 58 59 52 .0065 0 .003 18 58 66 0 60 61 62 55 ?1 29 59 76 0
 62 63 55 -.0065 0 .003 18 62 67 0 64 58 65 59 ?1 29 63 77 0 65 66 59 -.0065 0 -
.003 18 65 68 0 67 62 68 63 ?1 29 66 78 0 68 69 63 .0065 0 -.003 18 68 69 0 70 6
5 71 66 ?1 29 69 32 0 57 72 66 .0065 .01 .003 18 57 30 0 73 54 74 69 ?1 29 72 29
 0 74 75 69 -.0065 .01 .003 18 74 27 0 76 57 77 72 ?1 29 75 26 0 77 78 72 -.0065
 .01 -.003 18 77 24 0 79 74 61 75 ?1 29 78 23 0 61 80 75 .0065 .01 -.003 18 61 2
1 0 81 77 58 78 ?1 29 80 266 0 82 83 78 .0025 .01 .003 18 82 219 0 84 85 86 80 ?
1 29 83 267 0 86 87 80 -.0025 .01 .003 18 86 221 0 88 82 89 83 ?1 29 87 269 0 89
 90 83 .0025 .01 -.003 18 89 217 0 91 86 92 87 ?1 29 90 270 0 71 93 87 .0025 .00
2 .003 18 71 216 0 94 68 95 90 ?1 29 93 271 0 95 96 90 -.0025 .002 .003 18 95 21
8 0 97 71 98 93 ?1 29 96 272 0 98 99 93 -.0025 .002 -.003 18 98 220 0 100 95 85
 96 ?1 29 99 273 0 85 101 96 .0025 .002 -.003 18 85 222 0 29 98 82 99 ?1 29 101
 390 0 102 103 99 -.003 .01 .0025 18 102 343 0 104 105 106 101 ?1 29 103 391 0 1
06 107 101 -.006 .01 .0025 18 106 345 0 108 102 109 103 ?1 29 107 392 0 109 110
 103 -.006 .01 -.0025 18 109 347 0 111 106 112 107 ?1 29 110 394 0 92 113 107 -.
003 .0099 .0025 18 92 340 0 114 89 115 110 ?1 29 113 395 0 115 116 110 -.006 .00
99 .0025 18 115 342 0 117 92 118 113 ?1 29 116 396 0 118 119 113 -.006 .0099 -.0
025 18 118 344 0 120 115 105 116 ?1 29 119 397 0 105 121 116 -.003 .0099 -.0025
 18 105 346 0 122 118 102 119 ?1 29 121 518 0 123 124 119 .003 .01 -.0025 18 123
 475 0 125 126 127 121 ?1 29 124 519 0 127 128 121 .006 .01 -.0025 18 127 468 0
 129 123 130 124 ?1 29 128 520 0 130 131 124 .006 .01 .0025 18 130 470 0 132 127
 133 128 ?1 29 131 522 0 112 134 128 .003 .0099 -.0025 18 112 469 0 135 109 136
 131 ?1 29 134 523 0 136 137 131 .006 .0099 -.0025 18 136 472 0 138 112 139 134
 ?1 29 137 524 0 139 140 134 .006 .0099 .0025 18 139 473 0 141 136 126 137 ?1 29
 140 525 0 126 142 137 .003 .0099 .0025 18 126 474 0 143 139 123 140 ?1 29 142 7
21 0 133 144 140 -.0065 .0041 4e-4 18 133 655 0 145 130 146 142 ?1 29 144 722 0
 146 147 142 -.0065 .0041 -4e-4 18 146 643 0 148 133 149 144 ?1 29 147 723 0 149
 150 144 -.0065 .01 4e-4 18 149 651 0 151 146 152 147 ?1 29 150 724 0 152 153 14
7 -.0065 .01 -4e-4 18 152 645 0 154 149 155 150 ?1 29 153 725 0 155 156 150 -.00
6 .0099 -4e-4 18 155 649 0 157 152 158 153 ?1 29 156 727 0 159 160 153 -.006 .01
 4e-4 18 159 647 0 161 162 163 156 ?1 29 160 730 0 163 164 156 -.006 .01 -4e-4 1
8 163 650 0 165 159 166 160 ?1 29 164 731 0 158 167 160 -.006 .0041 4e-4 18 158
 644 0 168 155 162 164 ?1 29 167 734 0 162 169 164 -.006 .0041 -4e-4 18 162 646
 0 170 158 159 167 ?1 29 169 931 0 166 171 167 .0065 .0041 -4e-4 18 166 864 0 17
2 163 173 169 ?1 29 171 932 0 173 174 169 .0065 .0041 4e-4 18 173 853 0 175 166
 176 171 ?1 29 174 933 0 176 177 171 .0065 .01 -4e-4 18 176 861 0 178 173 179 17
4 ?1 29 177 934 0 179 180 174 .0065 .01 4e-4 18 179 857 0 181 176 182 177 ?1 29
 180 935 0 182 183 177 .006 .0099 4e-4 18 182 860 0 184 179 185 180 ?1 29 183 93
7 0 186 187 180 .006 .01 -4e-4 18 186 856 0 188 189 190 183 ?1 29 187 940 0 190
 191 183 .006 .01 4e-4 18 190 858 0 192 186 193 187 ?1 29 191 941 0 185 194 187
 .006 .0041 -4e-4 18 185 855 0 195 182 189 191 ?1 29 194 944 0 189 196 191 .006
 .0041 4e-4 18 189 854 0 197 185 186 194 ?1 29 196 1101 0 193 198 194 -.0025 .00
68 25e-5 18 193 1033 0 199 190 200 196 ?1 29 198 1102 0 200 201 196 -.0025 .002
 25e-5 18 200 1026 0 202 193 203 198 ?1 29 201 1103 0 203 204 198 -.0025 .0068 -
25e-5 18 203 1028 0 37 200 205 201 ?1 29 204 1105 0 206 207 201 -.003 .002 25e-5
 18 206 1027 0 208 209 210 204 ?1 29 207 1107 0 210 211 204 -.003 .002 -25e-5 18
 210 1030 0 39 206 212 207 ?1 29 211 1108 0 205 213 207 -.003 .0068 25e-5 18 205
 1037 0 214 203 209 211 ?1 29 213 1111 0 209 215 211 -.003 .0068 -25e-5 18 209 1
029 0 216 205 206 213 ?1 29 215 1304 0 212 217 213 .0025 .0068 25e-5 18 212 1229
 0 218 210 219 215 ?1 29 217 1305 0 219 220 215 .0025 .002 25e-5 18 219 1239 0 2
21 212 222 217 ?1 29 220 1306 0 222 223 217 .0025 .0068 -25e-5 18 222 1238 0 224
 219 225 220 ?1 29 223 1308 0 225 226 220 .003 .002 -25e-5 18 225 1231 0 31 222
 227 223 ?1 29 226 1309 0 228 229 223 .003 .0068 -25e-5 18 228 1234 0 230 231 0
 226 ?1 29 229 1312 0 227 232 226 .003 .0068 25e-5 18 227 1233 0 233 225 231 229
 ?1 29 232 1314 0 231 0 229 .003 .002 25e-5 18 231 1232 0 234 227 228 232 ?1 17
 234 0 28 30 235 231 221 236 0 237 -15 255 28 1343 0 235 238 0 17 30 0 28 26 234
 225 239 240 0 0 -17 235 0 28 234 241 219 94 242 0 0 +17 221 0 243 218 237 219 2
34 236 0 244 +16 236 1198 245 ?221 246 240 247 0 0 1 17 237 0 243 221 248 231 23
3 249 0 239 -15 243 1252 0 218 250 0 17 248 0 243 237 218 227 251 252 0 253 -17
 233 0 254 255 239 227 237 249 0 248 +16 249 1202 256 ?233 252 257 258 0 0 1 17
 239 0 254 233 259 231 30 240 0 0 +15 254 1260 0 239 260 0 17 259 0 254 239 255
 225 261 262 0 30 -16 240 1201 263 ?239 236 32 264 0 0 1 81 2 263 2258 265 240 0
 0 266 267 0 0 16 32 1200 268 ?31 240 269 270 0 0 1 30 264 1297 0 240 247 270 0
 +.003 .002 25e-5 0 0 1 30 247 1298 0 236 271 264 0 +.002 .002 25e-5 -1 0 0 30 2
70 1296 0 32 264 258 0 +.002 .002 -25e-5 1 0 0 30 258 1295 0 249 270 272 0 +.003
 .000881966011250101 25e-5 0 1 0 30 272 1292 0 262 258 273 0 +.003 .000881966011
250101 -25e-5 0 1 0 16 262 1209 274 ?261 257 275 272 0 0 1 30 273 1291 0 246 272
 276 0 +.0025 .002 -25e-5 0 -1 0 16 246 1224 277 ?33 278 236 273 0 0 1 30 276 12
90 0 278 273 279 0 +.0025 .002 25e-5 0 1 0 16 278 1213 280 ?218 281 246 276 0 0
 1 30 279 1100 0 282 276 283 0 +-.002 .0068 -25e-5 -1 0 0 16 282 999 284 ?216 28
5 286 279 0 0 1 30 283 1098 0 286 279 287 0 +-.002 .0068 25e-5 1 0 0 16 286 995
 288 ?289 282 281 283 0 0 1 30 287 1097 0 281 283 290 0 +-.003 .0068 25e-5 0 0 1
 16 281 1002 291 ?292 286 278 287 0 0 1 30 290 1096 0 285 287 293 0 +-.002 .002
 25e-5 1 0 0 16 285 1005 294 ?295 40 282 290 0 0 1 30 293 1095 0 296 290 297 0 +
-.003 .002 25e-5 0 0 1 16 296 1024 298 ?299 300 301 293 0 0 1 30 297 1094 0 40 2
93 302 0 +-.002 .002 -25e-5 -1 0 0 16 40 1008 303 ?39 301 285 297 0 0 1 30 302 1
092 0 301 297 304 0 +-.003 .000881966011250101 -25e-5 0 1 0 16 301 1009 305 ?306
 296 40 302 0 0 1 30 304 1089 0 300 302 307 0 +-.003 .000881966011250101 25e-5 0
 1 0 16 300 1025 308 ?214 309 296 304 0 0 1 30 307 1088 0 309 304 310 0 +-.0025
 .002 -25e-5 0 -1 0 16 309 1007 311 ?41 312 300 307 0 0 1 30 310 1087 0 312 307
 313 0 +-.0025 .002 25e-5 0 1 0 16 312 1006 314 ?315 316 309 310 0 0 1 30 313 93
0 0 317 310 318 0 +.006 .0041 4e-4 0 0 -1 16 317 813 319 ?320 321 322 313 0 0 1
 30 318 929 0 321 313 323 0 +.007 .0041 4e-4 -1 0 542101086242752e-31 16 321 810
 324 ?197 325 317 318 0 0 1 30 323 927 0 325 318 326 0 +.007 .0041 -4e-4 1 0 0 1
6 325 806 327 ?328 329 321 323 0 0 1 30 326 925 0 316 323 330 0 +.007 .01 4e-4 -
1 0 542101086242752e-31 16 316 821 331 ?332 322 312 326 0 0 1 30 330 923 0 322 3
26 333 0 +.007 .01 -4e-4 1 0 0 16 322 818 334 ?335 317 316 330 0 0 1 30 333 922
 0 336 330 337 0 +.006 .0041 -4e-4 0 1 0 16 336 816 338 ?42 339 340 333 340 340
 1 30 337 919 0 341 333 342 0 +.006 .0041 4e-4 0 1 0 16 341 824 343 ?344 340 329
 337 329 329 1 30 342 916 0 339 337 345 0 +.0065 .01 4e-4 0 -1 0 16 339 841 346
 ?175 347 336 342 0 0 1 30 345 915 0 347 342 348 0 +.0065 .01 -4e-4 0 1 0 16 347
 830 349 ?178 350 339 345 0 0 1 30 348 720 0 351 345 352 0 +-.006 .0041 4e-4 0 0
 -1 16 351 618 353 ?354 355 356 348 0 0 1 30 352 719 0 355 348 357 0 +-.007 .004
1 -4e-4 -1 0 0 16 355 603 358 ?359 360 351 352 0 0 1 30 357 717 0 360 352 361 0
 +-.007 .0041 4e-4 1 0 542101086242752e-31 16 360 598 362 ?168 363 355 357 0 0 1
 30 361 715 0 350 357 364 0 +-.007 .01 -4e-4 -1 0 0 16 350 613 365 ?154 356 347
 361 0 0 1 30 364 713 0 356 361 366 0 +-.007 .01 4e-4 1 0 542101086242752e-31 16
 356 607 267 ?161 351 350 364 0 0 1 30 366 712 0 367 364 368 0 +-.006 .0041 4e-4
 0 1 0 16 367 601 369 ?47 370 371 366 371 371 1 30 368 709 0 372 366 373 0 +-.00
6 .0041 -4e-4 0 1 0 16 372 616 374 ?375 371 363 368 363 363 1 30 373 706 0 370 3
68 376 0 +-.0065 .01 -4e-4 0 1 0 16 370 606 377 ?378 379 367 373 0 0 1 30 376 70
5 0 379 373 380 0 +-.0065 .01 4e-4 0 -1 0 16 379 597 381 ?382 383 370 376 0 0 1
 30 380 517 0 384 376 385 0 +.003 .0099 .0025 0 0 -1 16 384 456 386 ?387 388 389
 380 0 0 1 30 385 516 0 388 380 390 0 +.006 .0099 .0025 -1 0 0 16 388 465 391 ?1
43 392 384 385 0 0 1 30 390 515 0 393 385 394 0 +.006 .0099 .0025 0 0 1 16 393 4
62 395 ?396 397 398 390 392 398 1 30 394 514 0 397 390 399 0 +.006 .0099 -.0025
 1 0 0 16 397 459 400 ?138 401 393 394 0 0 1 30 399 513 0 383 394 402 0 +.003 .0
1 .0025 0 0 -1 16 383 440 403 ?404 405 379 399 0 0 1 30 402 512 0 405 399 406 0
 +.006 .01 .0025 -1 0 0 16 405 452 407 ?408 409 383 402 0 0 1 30 406 511 0 410 4
02 411 0 +.006 .01 .0025 0 0 1 16 410 448 412 ?413 389 409 406 409 409 1 30 411
 510 0 389 406 414 0 +.006 .01 -.0025 1 0 0 16 389 444 415 ?416 384 410 411 0 0
 1 30 414 509 0 417 411 418 0 +.003 .0099 -.0025 0 1 0 16 417 447 419 ?420 421 4
22 414 0 0 1 30 418 508 0 422 414 423 0 +.006 .0099 -.0025 0 1 0 16 422 451 424
 ?129 417 425 418 0 0 1 30 423 507 0 425 418 426 0 +.006 .0099 .0025 0 1 0 16 42
5 455 427 ?428 422 401 423 0 0 1 30 426 506 0 401 423 429 0 +.003 .0099 .0025 0
 1 0 16 401 443 266 ?430 425 397 426 0 0 1 30 429 389 0 431 426 432 0 +-.003 .00
99 .0025 0 0 -1 16 431 312 433 ?434 435 436 429 0 0 1 30 432 388 0 435 429 437 0
 +-.006 .0099 -.0025 -1 0 0 16 435 324 438 ?439 440 431 432 0 0 1 30 437 387 0 4
41 432 442 0 +-.006 .0099 .0025 0 0 1 16 441 320 443 ?444 445 446 437 440 446 1
 30 442 386 0 445 437 447 0 +-.006 .0099 .0025 1 0 0 16 445 316 448 ?449 450 441
 442 0 0 1 30 447 385 0 421 442 451 0 +-.003 .01 .0025 0 0 -1 16 421 328 452 ?53
 453 417 447 0 0 1 30 451 384 0 453 447 454 0 +-.006 .01 -.0025 -1 0 0 16 453 33
1 455 ?456 457 421 451 0 0 1 30 454 383 0 458 451 459 0 +-.006 .01 .0025 0 0 1 1
6 458 334 460 ?461 436 457 454 457 457 1 30 459 382 0 436 454 462 0 +-.006 .01 .
0025 1 0 0 16 436 337 463 ?464 431 458 459 0 0 1 30 462 381 0 465 459 466 0 +-.0
03 .0099 .0025 0 1 0 16 465 319 467 ?104 468 469 462 0 0 1 30 466 380 0 469 462
 470 0 +-.006 .0099 .0025 0 1 0 16 469 323 471 ?472 465 473 466 0 0 1 30 470 379
 0 473 466 474 0 +-.006 .0099 -.0025 0 1 0 16 473 327 475 ?111 469 450 470 0 0 1
 30 474 378 0 450 470 476 0 +-.003 .0099 -.0025 0 1 0 16 450 315 477 ?478 473 44
5 474 0 0 1 30 476 265 0 242 474 479 0 +.0025 .002 .003 0 0 -1 16 242 188 480 ?2
35 481 482 476 482 482 1 30 479 264 0 481 476 483 0 +-.0025 .002 -.003 -1 0 0 16
 481 200 484 ?485 486 242 479 0 0 1 30 483 263 0 487 479 488 0 +-.0025 .002 .003
 0 0 1 16 487 196 489 ?490 491 486 483 486 486 1 30 488 262 0 491 483 492 0 +-.0
025 .002 .003 1 0 0 16 491 192 493 ?241 494 487 488 0 0 1 30 492 261 0 468 488 4
95 0 +.0025 .01 .003 0 0 -1 16 468 204 496 ?91 497 465 492 0 0 1 30 495 259 0 49
7 492 498 0 +-.0025 .01 .003 0 0 1 16 497 210 499 ?88 482 468 495 0 0 1 30 498 2
57 0 500 495 501 0 +.0025 .002 .003 0 1 0 16 500 195 502 ?84 503 504 498 0 0 1 3
0 501 256 0 504 498 505 0 +-.0025 .002 .003 0 1 0 16 504 199 506 ?507 500 508 50
1 0 0 1 30 505 255 0 508 501 509 0 +-.0025 .002 -.003 0 1 0 16 508 203 510 ?56 5
04 494 505 0 0 1 30 509 254 0 494 505 511 0 +.0025 .002 -.003 0 1 0 16 494 191 5
12 ?513 508 491 509 0 0 1 30 511 7 0 514 509 515 0 +.0065 .01 .003 0 0 -1 16 514
 5 516 ?517 518 519 511 519 519 1 30 515 11 0 520 511 521 0 +-.0065 .01 -.003 -1
 0 0 16 520 9 522 ?523 524 518 515 518 518 1 30 521 15 0 525 515 526 0 +-.0065 .
01 .003 0 0 1 16 525 13 527 ?528 529 524 521 524 524 1 30 526 19 0 530 521 531 0
 +-.0065 .01 .003 1 0 0 16 530 17 532 ?533 534 529 526 529 529 1 30 531 74 0 503
 526 535 0 +.0065 0 .003 0 0 -1 16 503 62 536 ?537 538 500 531 0 0 1 30 535 73 0
 538 531 539 0 +-.0065 0 -.003 -1 0 0 16 538 58 540 ?67 541 503 535 0 0 1 30 539
 72 0 541 535 542 0 +-.0065 0 .003 0 0 1 16 541 54 543 ?64 544 538 539 0 0 1 30
 542 71 0 544 539 545 0 +-.0065 0 .003 1 0 0 16 544 50 546 ?60 519 541 542 0 0 1
 30 545 95 0 534 542 547 0 +.0065 .01 .003 0 -1 0 16 534 79 548 ?549 550 530 545
 0 0 1 30 547 96 0 550 545 551 0 +-.0065 .01 .003 0 -1 0 16 550 80 552 ?553 554
 534 547 0 0 1 30 551 97 0 554 547 555 0 +-.0065 .01 -.003 0 -1 0 16 554 81 556
 ?557 558 550 551 0 0 1 30 555 98 0 558 551 559 0 +.0065 .01 -.003 0 -1 0 16 558
 82 560 ?561 562 554 555 0 0 1 30 559 589 0 562 555 563 0 +-.0065 .0041 .003 0 0
 -1 16 562 587 564 ?565 566 558 559 0 0 1 30 563 792 0 566 559 20 0 +.0065 .0041
 .003 0 0 1 16 566 790 567 ?568 25 562 563 0 0 1 30 20 988 0 25 563 7 0 +-.0025
 .0068 .003 0 0 -1 16 25 986 569 ?570 10 566 20 0 0 1 81 2 569 2224 265 25 0 0 5
71 460 0 0 17 570 0 572 41 315 203 199 25 0 0 +15 572 235 0 573 574 0 17 41 0 57
2 100 570 27 37 309 0 490 +17 315 0 572 570 573 193 202 312 0 0 +17 199 0 575 57
6 577 193 570 25 0 289 -15 575 1045 0 576 578 0 17 576 0 575 579 199 205 289 286
 0 292 -17 577 0 575 199 579 203 216 282 0 570 -17 289 0 580 202 214 193 576 286
 0 315 +15 580 1049 0 208 581 0 17 202 0 580 208 289 200 315 312 0 295 -17 214 0
 580 289 208 205 582 300 0 576 +17 208 0 580 214 202 206 295 285 0 299 -17 582 0
 583 584 292 206 214 300 0 0 -15 583 1077 0 306 585 0 17 584 0 583 306 582 210 2
99 296 0 38 -17 292 0 583 582 306 205 579 281 0 0 +17 306 0 583 292 584 209 38 3
01 0 579 +17 579 0 575 577 576 209 292 281 0 0 -17 38 0 36 34 216 210 306 301 0
 0 -15 36 1053 0 216 586 0 17 216 0 36 38 37 209 577 282 0 306 +17 37 0 36 216 3
4 203 41 309 0 577 -14 255 586 1050 587 ?585 581 36 5 588 -0 0 585 581 22 81 1 5
87 2422 589 586 590 0 0 591 592 14 585 1074 591 ?593 586 583 5 594 -0 0 593 586
 22 14 581 1046 595 ?586 578 580 5 596 -0 0 586 578 22 50 588 1083 0 586 594 596
 0 +-.002 .000881966011250101 -25e-5 0 0 -1 -1 0 0 13 22 34 0 0 0 0 0 0 9 16 14
 16 1194 597 ?598 0 599 5 600 -0 0 598 0 22 81 1 597 2425 589 16 601 0 595 602 6
03 14 598 803 602 ?18 16 604 5 605 -606 606 18 16 22 15 599 1193 0 244 16 0 50 6
00 248 0 16 607 605 0 +.0025 .002 .003 1 0 0 0 0 -1 50 607 250 0 574 608 600 0 +
-.0025 .002 .003 -1 0 0 0 0 1 50 605 3 0 606 600 609 0 +0 .01 0 0 -1 0 0 0 -1 14
 606 1 610 ?611 612 613 5 605 -598 598 611 612 22 50 609 70 0 611 605 614 0 +0 0
 0 0 -1 0 0 0 -1 14 611 48 615 ?574 606 616 5 609 +0 0 574 606 22 50 614 91 0 61
2 609 617 0 +-.0065 .01 .003 0 0 -1 -1 0 0 14 612 84 618 ?606 619 620 5 614 -0 0
 606 619 22 50 617 92 0 619 614 19 0 +-.0065 .01 .003 1 0 0 0 0 -1 14 619 86 621
 ?612 622 623 5 617 -0 0 612 622 22 50 19 93 0 622 617 6 0 +-.0065 .01 -.003 0 0
 1 1 0 0 14 622 88 624 ?619 625 626 5 19 -0 0 619 625 22 81 1 624 2431 589 622 6
27 0 621 628 629 14 625 563 628 ?622 630 631 5 632 -633 633 622 630 22 15 626 87
 0 634 622 0 17 634 0 626 513 635 85 485 481 0 0 -17 513 0 626 636 634 89 637 49
4 0 523 +17 635 0 626 634 638 98 56 508 0 0 -17 485 0 28 490 29 98 634 481 0 635
 +17 490 0 28 39 485 27 100 487 0 0 +17 29 0 28 485 26 85 639 482 0 637 +17 639
 0 599 640 637 11 29 482 0 0 -16 482 1168 641 ?29 242 497 476 242 242 1 17 637 0
 599 639 91 85 513 494 0 634 -17 91 0 599 637 84 89 642 468 0 513 +17 84 0 599 9
1 94 82 643 500 0 642 +17 642 0 604 73 523 82 91 468 0 644 -15 604 801 0 335 598
 0 17 73 0 604 517 642 57 644 529 0 645 +17 523 0 604 642 81 89 636 520 0 0 +17
 644 0 620 643 645 82 73 529 0 0 -15 620 160 0 644 612 0 17 643 0 620 646 644 71
 84 500 0 0 -17 645 0 620 644 60 57 549 534 0 647 -16 529 147 648 ?73 530 525 52
6 530 530 1 81 2 648 2254 265 529 0 0 548 284 0 0 80 255 2 265 649 650 9000 0 0
 0 0 3 6 0 0 0 FFFFFFTFFFFFFF9 1 81 2 548 2253 265 534 0 0 455 648 0 0 81 2 284
 2255 265 282 0 0 648 338 0 0 81 2 338 2256 265 336 0 0 284 266 0 0 81 2 266 225
7 265 401 0 0 338 263 0 0 81 2 455 2252 265 453 0 0 314 548 0 0 81 2 314 2251 26
5 312 0 0 651 455 0 0 81 2 651 2250 265 446 0 0 391 314 0 0 16 446 549 651 ?652
 441 440 437 441 440 1 81 2 391 2249 265 388 0 0 324 651 0 0 81 2 324 2248 265 3
21 0 0 653 391 0 0 81 2 653 2247 265 252 0 0 654 324 0 0 16 252 1203 653 ?251 26
9 249 655 0 0 1 81 2 654 2246 265 340 0 0 656 653 0 0 16 340 817 654 ?657 336 34
1 333 336 336 1 81 2 656 2245 265 524 0 0 543 654 0 0 16 524 574 656 ?76 525 520
 521 525 525 1 81 2 543 2244 265 541 0 0 475 656 0 0 81 2 475 2243 265 473 0 0 3
43 543 0 0 81 2 343 2242 265 341 0 0 305 475 0 0 81 2 305 2241 265 301 0 0 23 34
3 0 0 81 2 23 2240 265 10 0 0 412 305 0 0 81 2 412 2239 265 410 0 0 471 23 0 0 8
1 2 471 2238 265 469 0 0 499 412 0 0 81 2 499 2237 265 497 0 0 489 471 0 0 81 2
 489 2236 265 487 0 0 256 499 0 0 81 2 256 2235 265 249 0 0 277 489 0 0 81 2 277
 2234 265 246 0 0 349 256 0 0 81 2 349 2233 265 347 0 0 658 277 0 0 81 2 658 223
2 265 486 0 0 245 349 0 0 16 486 967 658 ?97 487 481 483 487 487 1 81 2 245 2231
 265 236 0 0 400 658 0 0 81 2 400 2230 265 397 0 0 288 245 0 0 81 2 288 2229 265
 286 0 0 659 400 0 0 81 2 659 2228 265 257 0 0 516 288 0 0 16 257 1210 659 ?253
 249 262 271 0 0 1 81 2 516 2227 265 514 0 0 395 659 0 0 81 2 395 2226 265 393 0
 0 460 516 0 0 81 2 460 2225 265 458 0 0 569 395 0 0 17 253 0 660 251 230 227 25
5 257 0 0 +30 271 1300 0 257 661 247 0 +.003 .0068 25e-5 0 0 1 30 661 1301 0 269
 655 271 0 +.002 .0068 -25e-5 1 0 0 16 269 1206 662 ?230 32 252 661 0 0 1 30 655
 1303 0 252 663 661 0 +.002 .0068 25e-5 -1 0 0 31 255 663 1389 0 664 665 655 0 +
-.005 0 .00127 0 -1 0 0 0 -1 2e-4 16 664 1367 666 ?667 275 668 663 0 0 1 31 665
 1390 0 275 669 663 0 +-.005 -.006 .00127 0 -1 0 0 0 -1 2e-4 16 275 1370 670 ?67
1 262 664 665 0 0 1 31 669 1420 0 672 673 665 0 +.005 0 .00127 0 -1 0 0 0 -1 2e-
4 16 672 1398 674 ?675 668 676 669 0 0 1 31 673 1421 0 668 677 669 0 +.005 -.006
 .00127 0 -1 0 0 0 -1 2e-4 16 668 1401 678 ?679 664 672 673 0 0 1 31 677 1451 0
 680 681 673 0 +.005 0 -.00127 0 -1 0 0 0 -1 2e-4 16 680 1429 682 ?683 676 684 6
77 0 0 1 31 681 1452 0 676 685 677 0 +.005 -.006 -.00127 0 -1 0 0 0 -1 2e-4 16 6
76 1432 686 ?687 672 680 681 0 0 1 31 685 1482 0 688 689 681 0 +-.005 0 -.00127
 0 -1 0 0 0 -1 2e-4 16 688 1460 690 ?691 684 0 685 0 0 1 31 689 1483 0 684 0 685
 0 +-.005 -.006 -.00127 0 -1 0 0 0 -1 2e-4 16 684 1463 692 ?693 680 688 689 0 0
 1 81 2 692 2262 265 684 0 0 694 678 0 0 17 693 0 695 693 693 0 696 684 0 0 +15
 695 1473 0 693 697 0 17 696 0 698 696 696 0 693 684 0 0 -15 698 1469 0 696 699
 700 14 699 1466 701 ?697 702 698 5 703 -0 0 697 702 22 15 700 1470 0 691 699 0
 17 691 0 700 691 691 0 704 688 0 0 +17 704 0 616 704 704 0 691 688 0 0 -15 616
 1454 0 704 611 705 15 705 1423 0 706 611 707 17 706 0 705 706 706 0 683 680 0 0
 -15 707 1392 0 708 611 709 17 708 0 707 708 708 0 675 672 0 0 -15 709 1361 0 71
0 611 711 17 710 0 709 710 710 0 667 664 0 0 -15 711 49 0 712 611 0 17 712 0 711
 713 70 58 537 503 0 0 -17 713 0 711 714 712 62 60 544 0 0 -17 70 0 711 712 714
 68 67 538 0 561 -17 537 0 715 716 549 68 712 503 0 0 +15 715 795 0 717 18 0 17
 716 0 715 718 537 61 561 558 0 0 -17 549 0 715 537 647 58 645 534 0 712 +17 647
 0 715 549 719 57 517 514 0 0 -17 719 0 715 647 568 179 175 339 0 517 -17 517 0
 604 332 73 179 647 514 0 0 +17 332 0 604 132 517 190 181 316 0 720 +17 132 0 60
4 408 332 130 720 409 0 428 +17 181 0 721 175 192 179 332 316 0 719 -17 720 0 72
2 723 428 190 132 409 0 0 -15 722 487 0 720 630 0 17 723 0 722 141 720 182 192 3
29 0 724 -17 428 0 722 720 141 130 725 425 0 726 +16 409 768 694 ?132 410 405 40
6 410 410 1 81 2 694 2261 265 409 0 0 727 692 0 0 81 2 727 2260 265 457 0 0 267
 694 0 0 16 457 558 727 ?108 458 453 454 458 458 1 81 2 267 2259 265 356 0 0 263
 727 0 0 17 108 0 631 728 729 106 730 457 0 472 +15 631 561 0 731 625 0 17 728 0
 631 731 108 115 472 469 0 732 -17 729 0 631 108 731 159 733 371 0 730 +17 730 0
 613 734 735 159 108 457 0 0 -17 472 0 736 464 732 106 728 469 0 735 +15 736 355
 0 464 737 0 17 464 0 736 114 472 102 735 436 0 738 +17 732 0 736 472 114 115 44
9 445 0 0 -17 735 0 613 730 738 106 464 436 0 0 -15 613 4 0 730 606 0 17 738 0 6
13 735 739 102 53 421 0 0 -17 739 0 613 738 740 51 456 453 0 0 -17 53 0 741 122
 104 51 738 421 0 478 +15 741 351 0 53 742 0 17 122 0 741 743 53 105 478 450 0 7
44 -17 104 0 741 53 743 102 114 465 0 464 +17 478 0 745 456 744 51 122 450 0 739
 +15 745 363 0 456 746 0 17 456 0 745 120 478 109 739 453 0 740 +17 744 0 745 47
8 120 105 439 435 0 434 -17 120 0 745 744 456 118 111 473 0 747 -17 439 0 748 44
4 434 118 744 435 0 0 +17 434 0 748 439 449 105 743 431 0 0 +15 748 366 0 434 74
9 0 17 449 0 748 434 117 92 732 445 0 0 +17 743 0 741 104 122 92 434 431 0 449 -
17 117 0 748 449 652 115 731 440 0 728 +17 652 0 748 117 444 43 157 446 0 0 +17
 731 0 631 729 728 43 117 440 0 652 -16 440 552 750 ?117 446 435 437 446 441 1 8
1 2 750 2266 265 440 0 0 506 331 0 0 81 2 506 2265 265 504 0 0 751 750 0 0 81 2
 331 2267 265 316 0 0 750 433 0 0 81 2 433 2268 265 431 0 0 331 564 0 0 81 2 564
 2269 265 562 0 0 433 752 0 0 81 2 752 2270 265 518 0 0 564 536 0 0 16 518 141 7
52 ?79 520 514 515 520 520 1 81 2 536 2271 265 503 0 0 752 319 0 0 81 2 319 2272
 265 317 0 0 536 369 0 0 81 2 369 2273 265 367 0 0 319 419 0 0 81 2 419 2274 265
 417 0 0 369 443 0 0 81 2 443 2275 265 441 0 0 419 666 0 0 81 2 666 2276 265 664
 0 0 443 365 0 0 81 2 365 2277 265 350 0 0 666 346 0 0 81 2 346 2278 265 339 0 0
 365 753 0 0 81 2 753 2279 265 519 0 0 346 0 0 0 16 519 784 753 ?81 514 544 511
 514 514 1 17 81 0 604 523 335 61 718 519 0 636 +17 335 0 604 81 413 176 188 322
 0 718 +17 718 0 715 717 716 176 81 519 0 0 -17 636 0 626 561 513 61 523 520 0 7
16 -17 561 0 626 67 636 68 716 558 0 537 +17 67 0 626 754 561 65 70 538 0 557 +1
7 754 0 626 638 67 77 557 554 0 755 -17 557 0 623 64 755 65 754 554 0 714 +15 62
3 584 0 756 619 0 17 64 0 623 757 557 62 714 541 0 553 +17 755 0 623 557 378 77
 528 525 0 0 -17 714 0 711 70 713 65 64 541 0 0 -17 378 0 623 755 565 152 148 37
0 0 528 +17 528 0 613 758 79 152 755 525 0 0 +17 758 0 613 740 528 163 154 350 0
 461 -17 79 0 613 528 759 77 638 518 0 754 +17 759 0 613 79 533 54 88 497 0 638
 -17 638 0 626 635 754 54 79 518 0 0 -17 533 0 613 759 76 86 760 530 0 0 +17 88
 0 572 761 56 86 759 497 0 507 +17 761 0 572 573 88 95 507 504 0 646 -17 56 0 57
2 88 100 54 635 508 0 759 +17 507 0 620 760 646 86 761 504 0 533 +17 760 0 620 5
53 507 74 533 530 0 0 -17 646 0 620 507 643 95 241 491 0 0 -17 241 0 28 235 97 7
1 646 491 0 643 +17 97 0 28 241 295 95 573 486 0 761 +17 295 0 28 97 299 200 208
 285 0 573 +17 573 0 572 315 761 200 97 486 0 0 -17 299 0 28 295 39 206 584 296
 0 582 +17 39 0 28 299 490 210 34 40 0 584 +17 553 0 620 60 760 62 757 550 0 713
 +17 60 0 620 645 553 58 713 544 0 549 +17 757 0 623 756 64 74 553 550 0 760 -17
 756 0 623 382 757 149 76 524 0 0 -17 382 0 623 565 756 133 151 379 0 0 +17 76 0
 613 533 734 74 756 524 0 757 +17 734 0 613 76 730 149 161 356 0 756 -17 161 0 7
62 733 151 159 734 356 0 729 +15 762 663 0 161 763 0 17 733 0 762 764 161 43 729
 371 0 731 -17 151 0 762 161 765 149 382 379 0 734 -17 765 0 762 151 764 133 168
 360 0 382 -17 764 0 762 765 733 158 47 367 0 766 -17 168 0 767 354 145 158 765
 360 0 764 +15 767 659 0 168 768 0 17 354 0 767 359 168 162 766 351 0 0 +17 145
 0 767 168 359 133 565 562 0 765 -17 359 0 767 145 354 146 769 355 0 565 +17 565
 0 623 378 382 146 145 562 0 0 +17 769 0 770 375 148 162 359 355 0 354 -15 770 6
67 0 769 771 0 17 375 0 770 165 769 155 170 372 0 772 +17 148 0 770 769 154 146
 378 370 0 359 -17 154 0 770 148 165 152 758 350 0 378 +17 165 0 770 154 375 163
 772 363 0 758 +17 772 0 773 747 461 155 165 363 0 444 -16 363 621 751 ?165 372
 360 368 372 372 1 81 2 751 2264 265 363 0 0 678 506 0 0 81 2 678 2263 265 668 0
 0 692 751 0 0 15 773 359 0 461 633 0 17 747 0 773 111 772 118 444 441 0 439 -17
 461 0 773 772 111 163 740 458 0 0 +17 444 0 748 652 439 155 747 441 0 0 +17 111
 0 773 461 747 109 120 473 0 456 +17 740 0 613 739 758 109 461 458 0 0 -14 633 3
56 774 ?746 737 773 5 632 -625 625 746 737 22 81 1 774 2434 589 633 775 0 701 77
6 777 14 746 360 776 ?749 633 745 5 778 -0 0 749 633 22 14 737 352 779 ?633 742
 736 5 780 -0 0 633 742 22 50 632 374 0 633 780 778 0 +-.006 .0099 .0025 -1 0 0
 0 0 1 50 780 375 0 737 781 632 0 +-.006 .0099 .0025 0 0 1 1 0 0 50 778 373 0 74
6 632 782 0 +-.006 .0099 -.0025 0 0 -1 -1 0 0 50 782 372 0 742 778 608 0 +-.003
 .0099 .0025 1 0 0 0 0 -1 14 742 348 783 ?737 238 741 5 782 -0 0 737 238 22 50 6
08 253 0 238 782 607 0 +0 .002 0 0 -1 0 0 0 -1 14 238 240 784 ?742 574 28 5 608
 -0 0 742 574 22 81 1 784 2438 589 238 785 0 783 786 787 14 574 232 786 ?238 611
 572 5 607 -0 0 238 611 22 81 1 786 2439 589 574 788 0 784 789 790 80 1 589 791
 792 9000 1 1 1 1 1 1 1 1 0 FFFFTFTFFFFFFF1 81 1 788 2291 793 574 794 786 795 78
5 796 81 1 789 2440 589 630 797 0 786 798 799 82 255 1 790 352911498 14 630 773
 789 ?625 800 722 5 801 +800 800 625 800 22 81 1 797 2284 793 630 802 789 803 80
4 805 81 1 798 2441 589 800 803 0 789 806 807 82 1 799 -196476797 14 800 778 798
 ?630 18 808 5 801 +630 630 630 18 22 81 1 803 2283 793 800 809 798 810 797 811
 81 1 806 2442 589 18 810 0 798 812 813 82 1 807 -196018045 14 18 796 806 ?800 5
98 715 5 6 -0 0 800 598 22 81 1 810 2282 793 18 814 806 815 803 816 81 1 812 244
3 589 593 817 0 806 818 819 82 1 813 -190840701 14 593 1241 812 ?250 585 660 5 8
20 -0 0 250 585 22 81 1 817 2314 793 593 821 812 822 823 824 81 1 818 2444 589 2
50 823 0 812 825 826 82 1 819 -269746025 14 250 1249 818 ?827 593 243 5 828 +0 0
 827 593 22 81 1 823 2315 793 250 829 818 817 830 831 81 1 825 2445 589 827 830
 0 818 832 833 82 1 826 -271974249 14 827 1253 825 ?260 250 834 5 835 +0 0 260 2
50 22 81 1 830 2316 793 827 836 825 823 837 838 81 1 832 2446 589 260 837 0 825
 839 840 82 1 833 -273284969 14 260 1257 832 ?841 827 254 5 842 +0 0 841 827 22
 81 1 837 2317 793 260 843 832 830 844 845 81 1 839 2447 589 841 844 0 832 846 8
47 82 1 840 -284360553 14 841 1373 839 ?848 260 849 5 850 -0 0 848 260 22 81 1 8
44 2318 793 841 851 839 837 852 853 81 1 846 2448 589 848 852 0 839 854 855 82 1
 847 -2031288162 14 848 1378 846 ?856 841 857 5 858 +0 0 856 841 22 81 1 852 231
9 793 848 859 846 844 860 861 81 1 854 2449 589 856 860 0 846 862 863 82 1 855 -
2033254242 14 856 1404 854 ?864 848 865 5 866 -0 0 864 848 22 81 1 860 2320 793
 856 867 854 852 868 869 81 1 862 2450 589 864 868 0 854 870 871 82 1 863 -20271
59394 14 864 1409 862 ?872 856 873 5 874 +0 0 872 856 22 81 1 868 2321 793 864 8
75 862 860 876 877 81 1 870 2451 589 872 876 0 862 878 879 82 1 871 -2029125474
 14 872 1435 870 ?702 864 880 5 881 -0 0 702 864 22 81 1 876 2322 793 872 882 87
0 868 883 884 81 1 878 2452 589 702 883 0 870 885 886 82 1 879 -2023096162 14 70
2 1440 878 ?699 872 887 5 888 +0 0 699 872 22 81 1 883 2323 793 702 889 878 876
 890 891 81 1 885 2453 589 697 892 0 878 893 894 82 1 886 -2025062242 14 697 147
1 885 ?0 699 695 5 895 +0 0 0 699 22 81 1 892 2325 793 697 896 885 890 0 897 81
 1 893 2454 589 578 898 0 885 899 900 82 1 894 -2020999010 14 578 1043 893 ?581
 901 575 5 902 -0 0 581 901 22 81 1 898 2310 793 578 903 893 904 905 906 81 1 89
9 2455 589 901 904 0 893 907 908 82 1 900 1183514762 14 901 881 899 ?578 909 910
 5 911 +0 0 578 909 22 81 1 904 2309 793 901 912 899 913 898 914 81 1 907 2456 5
89 909 913 0 899 915 916 82 1 908 -197656445 14 909 874 907 ?901 917 721 5 918 +
0 0 901 917 22 81 1 913 2308 793 909 919 907 920 904 921 81 1 915 2457 589 917 9
20 0 907 922 923 82 1 916 -193724285 14 917 870 915 ?909 924 925 5 926 +0 0 909
 924 22 81 1 920 2307 793 917 927 915 928 913 929 81 1 922 2458 589 924 928 0 91
5 930 931 82 1 923 -192741245 14 924 867 922 ?917 932 933 5 934 -0 0 917 932 22
 81 1 928 2306 793 924 935 922 936 920 937 81 1 930 2459 589 932 936 0 922 938 9
39 82 1 931 -190447485 14 932 671 930 ?924 771 940 5 941 -0 0 924 771 22 81 1 93
6 2305 793 932 942 930 943 928 944 81 1 938 2460 589 771 943 0 930 945 946 82 1
 939 -482803583 14 771 664 938 ?932 763 770 5 947 -0 0 932 763 22 81 1 943 2304
 793 771 948 938 949 936 950 81 1 945 2461 589 763 949 0 938 951 952 82 1 946 -4
78871423 14 763 660 945 ?771 768 762 5 953 -0 0 771 768 22 81 1 949 2303 793 763
 954 945 955 943 956 81 1 951 2462 589 768 955 0 945 957 958 82 1 952 -477888383
 14 768 657 951 ?763 959 767 5 960 -0 0 763 959 22 81 1 955 2302 793 768 961 951
 962 949 963 81 1 957 2463 589 959 962 0 951 964 965 82 1 958 -474873727 14 959
 492 957 ?768 966 967 5 968 -0 0 768 966 22 81 1 962 2301 793 959 969 957 970 95
5 971 81 1 964 2464 589 966 970 0 957 972 973 82 1 965 -1451884413 14 966 488 96
4 ?959 974 975 5 976 +0 0 959 974 22 81 1 970 2300 793 966 977 964 978 962 979 8
1 1 972 2465 589 974 978 0 964 980 981 82 1 973 -1444806530 14 974 480 972 ?966
 982 983 5 984 +0 0 966 982 22 81 1 978 2299 793 974 985 972 986 970 987 81 1 98
0 2466 589 982 986 0 972 988 989 82 1 981 -1445330818 14 982 476 980 ?974 749 99
0 5 991 +0 0 974 749 22 81 1 986 2298 793 982 992 980 993 978 994 81 1 988 2467
 589 749 993 0 980 0 995 82 1 989 -1444544386 14 749 364 988 ?982 746 748 5 781
 -0 0 982 746 22 81 1 993 2297 793 749 996 988 997 986 998 82 1 995 -1569980287
 80 1 793 0 999 8001 0 0 0 0 3 5 0 0 0 FFFFTFTFFFFFFF2 81 2 996 1953 1000 749 0
 993 1001 992 0 0 81 1 997 2296 793 746 1001 776 775 993 1002 83 255 3 998 .2980
392156862745 .2980392156862745 .2980392156862745 81 2 1001 1951 1000 746 0 997 1
003 996 0 0 81 1 776 2435 589 746 997 0 774 779 1004 81 1 775 2295 793 633 1003
 774 1005 997 1006 83 3 1002 .2980392156862745 .2980392156862745 .29803921568627
45 81 2 1003 1949 1000 633 0 775 1007 1001 0 0 81 1 1005 2294 793 737 1007 779 1
008 775 1009 83 3 1006 .2980392156862745 .2980392156862745 .2980392156862745 81
 2 1007 1947 1000 737 0 1005 1010 1003 0 0 81 1 779 2436 589 737 1005 0 776 783
 1011 81 1 1008 2293 793 742 1010 783 785 1005 1012 83 3 1009 .2980392156862745
 .2980392156862745 .2980392156862745 81 2 1010 1945 1000 742 0 1008 1013 1007 0
 0 81 1 783 2437 589 742 1008 0 779 784 1014 81 1 785 2292 793 238 1013 784 788
 1008 1015 83 3 1012 .2980392156862745 .2980392156862745 .2980392156862745 81 2
 1013 1943 1000 238 0 785 794 1010 0 0 83 3 1015 .2980392156862745 .298039215686
2745 .2980392156862745 80 2 1000 1016 1017 9000 0 0 0 0 3 6 0 0 0 FFFFTFFFFFFFFF
9 1 81 2 794 1941 1000 574 0 788 1018 1013 0 0 81 2 1018 1939 1000 611 0 795 101
9 794 0 0 81 1 795 2290 793 611 1018 615 1020 788 1021 81 2 1019 1937 1000 606 0
 1020 1022 1018 0 0 81 1 1020 2289 793 606 1019 610 1023 795 1024 81 2 1022 1935
 1000 612 0 1023 1025 1019 0 0 81 1 1023 2288 793 612 1022 618 1026 1020 1027 81
 2 1025 1933 1000 619 0 1026 1028 1022 0 0 81 1 1026 2287 793 619 1025 621 627 1
023 1029 81 2 1028 1931 1000 622 0 627 1030 1025 0 0 81 1 627 2286 793 622 1028
 624 804 1026 1031 81 2 1030 1929 1000 625 0 804 802 1028 0 0 81 1 804 2285 793
 625 1030 628 797 627 1032 81 2 802 1927 1000 630 0 797 809 1030 0 0 81 2 809 19
25 1000 800 0 803 814 802 0 0 81 2 814 1923 1000 18 0 810 1033 809 0 0 81 2 1033
 1921 1000 598 0 815 1034 814 0 0 81 1 815 2281 793 598 1033 602 601 810 1035 81
 2 1034 1919 1000 16 0 601 0 1033 0 0 81 1 601 2280 793 16 1034 597 0 815 1036 8
3 3 1036 .2980392156862745 .2980392156862745 .2980392156862745 81 1 602 2426 589
 598 815 0 597 610 1037 83 3 1035 .2980392156862745 .2980392156862745 .298039215
6862745 81 1 610 2427 589 606 1020 0 602 615 1038 82 1 1037 -189726589 81 1 615
 2428 589 611 795 0 610 618 1039 82 1 1038 193724545 81 1 618 2429 589 612 1023
 0 615 621 1040 82 1 1039 334889118 81 1 621 2430 589 619 1026 0 618 624 1041 82
 1 1040 200278131 82 1 1041 200540289 81 1 628 2432 589 625 804 0 624 701 1042 8
3 3 1032 .2980392156862745 .2980392156862745 .2980392156862745 81 1 701 2433 589
 699 890 0 628 774 1043 82 1 1042 -481623935 81 1 890 2324 793 699 1044 701 883
 892 1045 82 1 1043 -2019032930 81 2 1044 2007 1000 699 0 890 889 896 0 0 83 3 1
045 .894117647058824 .913725490196078 .929411764705882 81 2 889 2005 1000 702 0
 883 882 1044 0 0 81 2 896 2009 1000 697 0 892 1044 0 0 0 81 2 882 2003 1000 872
 0 876 875 889 0 0 81 2 875 2001 1000 864 0 868 867 882 0 0 81 2 867 1999 1000 8
56 0 860 859 875 0 0 81 2 859 1997 1000 848 0 852 851 867 0 0 81 2 851 1995 1000
 841 0 844 843 859 0 0 81 2 843 1993 1000 260 0 837 836 851 0 0 81 2 836 1991 10
00 827 0 830 829 843 0 0 81 2 829 1989 1000 250 0 823 821 836 0 0 81 2 821 1987
 1000 593 0 817 1046 829 0 0 81 2 1046 1985 1000 585 0 822 1047 821 0 0 81 1 822
 2313 793 585 1046 591 590 817 1048 81 2 1047 1983 1000 586 0 590 1049 1046 0 0
 81 1 590 2312 793 586 1047 587 905 822 1050 81 2 1049 1981 1000 581 0 905 903 1
047 0 0 81 1 905 2311 793 581 1049 595 898 590 1051 81 2 903 1979 1000 578 0 898
 912 1049 0 0 81 2 912 1977 1000 901 0 904 919 903 0 0 81 2 919 1975 1000 909 0
 913 927 912 0 0 81 2 927 1973 1000 917 0 920 935 919 0 0 81 2 935 1971 1000 924
 0 928 942 927 0 0 81 2 942 1969 1000 932 0 936 948 935 0 0 81 2 948 1967 1000 7
71 0 943 954 942 0 0 81 2 954 1965 1000 763 0 949 961 948 0 0 81 2 961 1963 1000
 768 0 955 969 954 0 0 81 2 969 1961 1000 959 0 962 977 961 0 0 81 2 977 1959 10
00 966 0 970 985 969 0 0 81 2 985 1957 1000 974 0 978 992 977 0 0 81 2 992 1955
 1000 982 0 986 996 985 0 0 81 1 595 2424 589 581 905 0 591 597 1052 83 3 1051 .
2980392156862745 .2980392156862745 .2980392156862745 81 1 591 2423 589 585 822 0
 587 595 1053 82 1 1052 1181941898 82 1 1053 1170014346 83 3 1050 .2980392156862
745 .2980392156862745 .2980392156862745 83 3 1048 .2980392156862745 .29803921568
62745 .2980392156862745 83 3 1031 .2980392156862745 .2980392156862745 .298039215
6862745 83 3 1029 .2980392156862745 .2980392156862745 .2980392156862745 83 3 102
7 .2980392156862745 .2980392156862745 .2980392156862745 83 3 1024 .2980392156862
745 .2980392156862745 .2980392156862745 83 3 1021 .2980392156862745 .29803921568
62745 .2980392156862745 79 255 14 1017 FACE_ID_2_200182 1 1014 -1563033476 82 1
 1011 -1563426692 82 1 1004 -1563164548 79 15 999 SDL/TYSA_COLOUR50 781 377 0 74
9 991 780 0 +0 .0099 0 0 -1 0 0 0 -1 50 991 500 0 982 976 781 0 +.003 .0099 .002
5 1 0 0 0 0 -1 50 976 501 0 966 801 991 0 +.006 .0099 .0025 0 0 -1 -1 0 0 50 801
 502 0 800 984 976 0 +.006 .0099 .0025 -1 0 0 0 0 1 50 984 503 0 974 968 801 0 +
.006 .0099 -.0025 0 0 1 1 0 0 50 968 505 0 959 941 984 0 +0 .0099 0 0 -1 0 0 0 -
1 50 941 699 0 932 947 968 0 +-.006 .0041 4e-4 1 0 0 0 0 -1 50 947 700 0 771 953
 941 0 +-.007 .0041 -4e-4 0 0 -1 -1 0 0 50 953 702 0 763 960 947 0 +-.007 .0041
 4e-4 -542101086242752e-31 0 1 1 0 542101086242752e-31 50 960 704 0 768 911 953
 0 +0 .0041 0 0 -1 0 0 0 -1 50 911 909 0 901 918 960 0 +.006 .0041 4e-4 1 0 0 0
 0 -1 50 918 910 0 909 926 911 0 +.007 .0041 4e-4 -542101086242752e-31 0 -1 -1 0
 542101086242752e-31 50 926 912 0 917 934 918 0 +.007 .0041 -4e-4 0 0 1 1 0 0 50
 934 914 0 924 596 926 0 +0 .0041 0 0 -1 0 0 0 -1 50 596 1081 0 581 588 934 0 +-
.002 .000881966011250101 25e-5 0 0 1 1 0 0 83 3 994 .2980392156862745 .298039215
6862745 .2980392156862745 15 990 479 0 50 982 0 17 50 0 990 1054 420 48 404 383
 0 430 -17 1054 0 990 387 50 126 430 401 0 1055 -17 420 0 990 50 387 123 1056 41
7 0 404 +17 404 0 604 416 408 123 50 383 0 0 +17 430 0 975 726 143 48 1054 401 0
 408 +15 975 491 0 726 966 0 17 726 0 975 725 430 130 408 405 0 0 -17 143 0 975
 430 725 126 1057 388 0 1054 +17 408 0 604 404 132 48 726 405 0 0 +17 725 0 975
 143 726 139 428 425 0 1057 -17 1057 0 967 724 1055 139 143 388 0 0 -15 967 494
 0 1055 959 0 17 724 0 967 1058 1057 182 141 392 0 0 -17 1055 0 967 1057 135 126
 387 384 0 0 -17 135 0 967 1055 1059 112 138 397 0 387 -17 387 0 990 420 1054 11
2 1055 384 0 1056 +17 1056 0 983 138 125 112 420 417 0 0 -15 983 483 0 125 974 0
 17 138 0 983 129 1056 136 135 397 0 1060 +17 125 0 983 1056 129 123 416 389 0 4
20 -17 129 0 983 125 138 127 1060 422 0 1061 +17 416 0 604 413 404 127 125 389 0
 0 +17 413 0 604 335 416 186 1061 410 0 0 +17 1061 0 808 1060 657 127 413 410 0
 416 -15 808 771 0 396 800 0 17 1060 0 808 396 1061 136 129 422 0 1059 -17 657 0
 808 1061 396 186 1062 340 0 413 +17 396 0 808 657 1060 35 1059 393 0 0 +17 1062
 0 925 1063 188 35 657 340 0 1058 -15 925 873 0 178 917 0 17 1063 0 925 328 1062
 185 42 336 0 0 -17 188 0 925 1062 178 186 335 322 0 657 -17 1058 0 967 1059 724
 35 184 398 0 396 -17 1059 0 967 135 1058 136 396 393 0 0 -17 184 0 910 1064 42
 182 1058 398 0 344 +16 398 759 571 ?184 393 392 390 393 392 1 81 2 571 2223 265
 398 0 0 670 569 0 0 16 392 762 1065 ?141 398 388 390 398 393 1 81 2 1065 2198 2
65 392 0 0 552 280 0 0 17 141 0 722 428 723 139 724 392 0 725 +81 2 552 2197 265
 550 0 0 546 1065 0 0 81 2 280 2199 265 278 0 0 1065 327 0 0 81 2 327 2200 265 3
25 0 0 280 358 0 0 81 2 358 2201 265 355 0 0 327 467 0 0 81 2 467 2202 265 465 0
 0 358 298 0 0 81 2 298 2203 265 296 0 0 467 527 0 0 81 2 527 2204 265 525 0 0 2
98 567 0 0 81 2 567 2205 265 566 0 0 527 522 0 0 81 2 522 2206 265 520 0 0 567 6
62 0 0 81 2 662 2207 265 269 0 0 522 268 0 0 81 2 268 2208 265 32 0 0 662 463 0
 0 81 2 463 2209 265 436 0 0 268 484 0 0 81 2 484 2210 265 481 0 0 463 560 0 0 8
1 2 560 2211 265 558 0 0 484 415 0 0 81 2 415 2212 265 389 0 0 560 407 0 0 81 2
 407 2213 265 405 0 0 415 686 0 0 81 2 686 2214 265 676 0 0 407 362 0 0 81 2 362
 2215 265 360 0 0 686 294 0 0 81 2 294 2216 265 285 0 0 362 674 0 0 81 2 674 221
7 265 672 0 0 294 377 0 0 81 2 377 2218 265 370 0 0 674 381 0 0 81 2 381 2219 26
5 379 0 0 377 556 0 0 81 2 556 2220 265 554 0 0 381 334 0 0 81 2 334 2221 265 32
2 0 0 556 670 0 0 81 2 670 2222 265 275 0 0 334 571 0 0 81 2 546 2196 265 544 0
 0 311 552 0 0 81 2 311 2195 265 309 0 0 353 546 0 0 81 2 353 2194 265 351 0 0 3
08 311 0 0 81 2 308 2193 265 300 0 0 502 353 0 0 81 2 502 2192 265 500 0 0 512 3
08 0 0 81 2 512 2191 265 494 0 0 403 502 0 0 81 2 403 2190 265 383 0 0 1066 512
 0 0 81 2 1066 2189 265 329 0 0 1067 403 0 0 16 329 826 1066 ?192 341 325 337 34
1 341 1 81 2 1067 2188 265 371 0 0 452 1066 0 0 16 371 602 1067 ?729 367 372 366
 367 367 1 81 2 452 2187 265 421 0 0 682 1067 0 0 81 2 682 2186 265 680 0 0 477
 452 0 0 81 2 477 2185 265 450 0 0 641 682 0 0 81 2 641 2184 265 482 0 0 540 477
 0 0 81 2 540 2183 265 538 0 0 510 641 0 0 81 2 510 2182 265 508 0 0 690 540 0 0
 81 2 690 2181 265 688 0 0 438 510 0 0 81 2 438 2180 265 435 0 0 480 690 0 0 81
 2 480 2179 265 242 0 0 424 438 0 0 81 2 424 2178 265 422 0 0 493 480 0 0 81 2 4
93 2177 265 491 0 0 448 424 0 0 81 2 448 2176 265 445 0 0 274 493 0 0 81 2 274 2
175 265 262 0 0 496 448 0 0 81 2 496 2174 265 468 0 0 427 274 0 0 81 2 427 2173
 265 425 0 0 532 496 0 0 81 2 532 2172 265 530 0 0 303 427 0 0 81 2 303 2171 265
 40 0 0 386 532 0 0 81 2 386 2170 265 384 0 0 374 303 0 0 81 2 374 2169 265 372
 0 0 291 386 0 0 81 2 291 2168 265 281 0 0 0 374 0 0 17 192 0 721 181 344 190 72
3 329 0 332 +15 721 877 0 175 909 0 17 344 0 721 192 197 182 1064 341 0 723 +17
 197 0 721 344 175 189 1068 321 0 1064 +17 1064 0 910 320 184 189 344 341 0 1069
 -15 910 884 0 184 901 0 17 320 0 910 42 1064 185 1069 317 0 1063 +17 1069 0 933
 1068 195 189 320 317 0 0 -15 933 869 0 195 924 0 17 1068 0 933 172 1069 173 197
 321 0 568 -17 195 0 933 1069 172 185 328 325 0 320 -17 172 0 933 195 1068 166 5
68 566 0 328 -17 328 0 925 178 1063 166 195 325 0 717 +17 178 0 925 188 328 176
 717 347 0 335 +17 717 0 715 568 718 166 178 347 0 0 -17 568 0 715 719 717 173 1
72 566 0 0 +17 42 0 910 184 320 35 1063 336 0 1062 +17 175 0 721 197 181 173 719
 339 0 1068 +83 3 987 .2980392156862745 .2980392156862745 .2980392156862745 83 3
 979 .2980392156862745 .2980392156862745 .2980392156862745 83 3 971 .29803921568
62745 .2980392156862745 .2980392156862745 83 3 963 .2980392156862745 .2980392156
862745 .2980392156862745 83 3 956 .2980392156862745 .2980392156862745 .298039215
6862745 83 3 950 .2980392156862745 .2980392156862745 .2980392156862745 83 3 944
 .2980392156862745 .2980392156862745 .2980392156862745 15 940 674 0 170 932 0 17
 170 0 940 766 157 162 375 372 0 769 -17 766 0 940 47 170 158 354 351 0 0 -17 15
7 0 940 170 47 155 652 446 0 375 -17 47 0 940 157 766 43 764 367 0 733 +83 3 937
 .2980392156862745 .2980392156862745 .2980392156862745 83 3 929 .298039215686274
5 .2980392156862745 .2980392156862745 83 3 921 .2980392156862745 .29803921568627
45 .2980392156862745 83 3 914 .2980392156862745 .2980392156862745 .2980392156862
745 83 3 906 .2980392156862745 .2980392156862745 .2980392156862745 50 902 1085 0
 578 842 594 0 +0 .0068 0 0 1 0 0 0 1 50 842 1284 0 260 828 902 0 +.003 .0008819
66011250101 25e-5 -1 0 0 0 0 1 50 594 1084 0 585 902 588 0 +-.003 .0008819660112
50101 25e-5 -1 0 0 0 0 1 50 828 1285 0 250 835 842 0 +.002 .000881966011250101 2
5e-5 0 0 -1 -1 0 0 50 835 1287 0 827 820 828 0 +.002 .000881966011250101 -25e-5
 0 0 1 1 0 0 50 820 1288 0 593 850 835 0 +0 .0068 0 0 1 0 0 0 1 51 255 850 1386
 0 841 858 820 0 --.005 -.006 .00127 0 1 0 2e-4 0 0 1 50 858 1388 0 848 866 850
 0 +-.005 -.006 .00127 0 -1 0 0 0 -1 51 866 1417 0 856 874 858 0 -.005 -.006 .00
127 0 1 0 2e-4 0 0 1 50 874 1419 0 864 881 866 0 +.005 -.006 .00127 0 -1 0 0 0 -
1 51 881 1448 0 872 888 874 0 -.005 -.006 -.00127 0 1 0 2e-4 0 0 1 50 888 1450 0
 702 703 881 0 +.005 -.006 -.00127 0 -1 0 0 0 -1 51 703 1479 0 699 895 888 0 --.
005 -.006 -.00127 0 1 0 2e-4 0 0 1 50 895 1481 0 697 0 703 0 +-.005 -.006 -.0012
7 0 -1 0 0 0 -1 83 3 897 .894117647058824 .913725490196078 .929411764705882 83 3
 891 .894117647058824 .913725490196078 .929411764705882 15 887 1442 0 687 702 0
 17 687 0 887 687 687 0 1070 676 0 0 +17 1070 0 880 1070 1070 0 687 676 0 0 -15
 880 1438 0 1070 872 1071 15 1071 1439 0 683 872 0 17 683 0 1071 683 683 0 706 6
80 0 0 +83 3 884 .894117647058824 .913725490196078 .929411764705882 83 3 877 .89
4117647058824 .913725490196078 .929411764705882 15 873 1411 0 679 864 0 17 679 0
 873 679 679 0 1072 668 0 0 +17 1072 0 865 1072 1072 0 679 668 0 0 -15 865 1407
 0 1072 856 1073 15 1073 1408 0 675 856 0 17 675 0 1073 675 675 0 708 672 0 0 +8
3 3 869 .894117647058824 .913725490196078 .929411764705882 83 3 861 .89411764705
8824 .913725490196078 .929411764705882 15 857 1380 0 671 848 0 17 671 0 857 671
 671 0 1074 275 0 0 +17 1074 0 849 1074 1074 0 671 275 0 0 -15 849 1376 0 1074 8
41 1075 15 1075 1377 0 667 841 0 17 667 0 1075 667 667 0 710 664 0 0 +83 3 853 .
894117647058824 .913725490196078 .929411764705882 83 3 845 .2980392156862745 .29
80392156862745 .2980392156862745 83 3 838 .2980392156862745 .2980392156862745 .2
980392156862745 15 834 1256 0 33 827 0 17 33 0 834 31 1076 11 640 246 0 639 +17
 31 0 834 261 33 225 26 32 0 259 +17 1076 0 834 33 261 222 230 269 0 640 -17 640
 0 599 24 639 222 33 246 0 0 -17 24 0 599 244 640 212 224 10 0 0 +17 244 0 599 9
4 24 219 218 278 0 235 -17 224 0 660 230 251 222 24 10 0 1076 -15 660 1243 0 230
 593 0 17 230 0 660 253 224 228 1076 269 0 261 +17 251 0 660 224 253 212 248 252
 0 24 +17 261 0 834 1076 31 228 259 262 0 255 +17 255 0 254 259 233 228 253 257
 0 0 -17 94 0 599 84 244 71 235 242 0 241 -17 218 0 243 248 221 212 244 278 0 25
1 +83 3 831 .2980392156862745 .2980392156862745 .2980392156862745 83 3 824 .2980
392156862745 .2980392156862745 .2980392156862745 83 3 816 .2980392156862745 .298
0392156862745 .2980392156862745 83 3 811 .2980392156862745 .2980392156862745 .29
80392156862745 83 3 805 .2980392156862745 .2980392156862745 .2980392156862745 83
 3 796 .2980392156862745 .2980392156862745 .2980392156862745 79 14 792 SWEntUnch
anged82 1 787 -1293090665 82 1 777 -1563295615 17 100 0 572 56 41 98 490 487 0 4
85 -17 114 0 736 732 464 92 104 465 0 743 -79 19 650 EDGE_PERM_ID_2_200382 1 629
 200802419 82 1 603 -270729065 82 1 592 1180631178 19 17 100 0 1 0 9 5 S0 74 4 C
I16 index_map_offset0 0 1 dCCZ20 15 11 0 0 988 1077 1078 1079 1080 1081 13 896 7
53 892 2 0 0 0 0 0 0 0 0 0 81 2 1077 1484 1082 1 0 1078 0 0 0 1083 81 2 1078 149
4 1084 1 1077 1079 0 0 0 1085 81 1 1079 1504 1086 1 1078 1080 0 0 1087 81 2 1080
 1554 1088 1 1079 1081 0 0 1089 0 81 2 1081 1760 1090 1 1080 13 0 0 0 1091 81 2
 13 1866 1092 1 1081 2 0 0 0 0 80 2 1092 1093 1094 9000 0 0 0 0 3 5 0 0 0 FFTFFF
FFFFFFFF9 1 79 16 1094 BODY_RECIPE_200180 2 1090 1095 1096 9000 0 0 0 0 3 5 0 0
 0 FFTFFFFFFFFFFF9 1 82 1 1091 1 79 24 1096 BODY_IN_LIGHTWEIGHT_PERM80 2 1088 10
97 1098 8004 0 0 0 0 3 5 0 0 0 FFTFFFFFFFFFFF2 3 83 1 1089 1 79 16 1098 SDL/TYSA
_DENSITY80 1 1086 1099 1100 9000 1 1 1 1 1 1 1 1 0 FFTFFFFFFFFFFF1 82 1 1087 332
1731 79 10 1100 BODY_MATCH80 2 1084 1101 1102 9000 0 0 0 0 3 5 0 0 0 FFTFFFFFFFF
FFF9 1 82 1 1085 128 79 30 1102 LAST_BODY_MODIFYING_FEATURE_ID80 2 1082 1103 110
4 9000 0 0 0 0 3 5 0 0 0 FFTFFFFFFFFFFT9 1 82 1 1083 134 79 19 1104 ENT_TIME_STA
MP_200180 2 12 265 1105 9000 0 0 0 0 3 5 0 0 0 FFTFFFFFFFFFFF9 1 82 1 14 111 79
 12 1105 ATOM_ID_20011 0 
